<svg version="1.1" id="Layer_1" xmlns="http://www.w3.org/2000/svg" xmlns:xlink="http://www.w3.org/1999/xlink" x="0px" y="0px"
	 width="100%" viewBox="0 0 500 500" enable-background="new 0 0 500 500" xml:space="preserve">
<path fill="#000000" opacity="1.000000" stroke="none" 
	d="
M215.000000,501.000000 
	C143.333344,501.000000 72.166702,501.000000 1.000038,501.000000 
	C1.000026,334.333405 1.000026,167.666779 1.000013,1.000128 
	C167.666580,1.000085 334.333160,1.000085 500.999817,1.000043 
	C500.999878,167.666534 500.999878,334.333069 500.999939,500.999817 
	C405.833344,501.000000 310.666656,501.000000 215.000000,501.000000 
M331.809631,310.866974 
	C337.180847,311.196350 341.277283,308.962524 343.730377,304.275269 
	C346.549316,298.888977 344.997070,293.976410 341.133759,289.564819 
	C344.672028,284.405762 348.134430,279.357361 351.524750,274.414032 
	C361.514679,277.085602 368.508179,274.677704 371.967957,267.596405 
	C375.122864,261.138947 372.989594,252.923187 367.114075,248.903122 
	C361.347778,244.957809 353.212646,245.700836 348.305878,250.621002 
	C342.420746,256.522186 342.615540,263.337494 349.027863,272.717834 
	C345.608978,277.744049 342.156219,282.820038 338.932709,287.559021 
	C335.630402,287.180023 332.755798,286.850159 330.035980,286.538025 
	C328.024445,282.789154 326.697937,279.743225 330.172119,275.755676 
	C331.746460,273.948761 331.764587,268.551758 330.208588,266.716156 
	C326.956238,262.879272 328.623993,259.937225 330.297546,256.946289 
	C331.924072,254.039368 331.701599,249.772995 336.671265,248.901505 
	C338.451782,248.589279 339.796448,245.260223 341.142456,243.180176 
	C342.110565,241.684067 342.392151,239.595337 343.613892,238.443176 
	C346.016724,236.177231 348.860718,234.379105 351.556671,232.361649 
	C352.918579,233.044754 354.195251,233.826126 355.570343,234.348175 
	C359.579041,235.870087 363.175110,234.867355 366.134735,231.985001 
	C369.308105,228.894485 369.996185,225.011673 368.362671,220.958481 
	C366.801392,217.084457 363.661804,214.285568 359.528320,214.943176 
	C354.771851,215.699905 352.633759,213.416901 350.663300,209.971191 
	C349.844696,208.539658 348.845459,207.211426 347.975861,205.907425 
	C351.773499,199.280380 351.714783,195.075104 347.867737,191.277206 
	C344.134735,187.591888 339.720490,187.765533 332.494019,191.909897 
	C330.353180,190.696991 328.262115,189.299026 326.000336,188.280014 
	C322.456543,186.683411 320.551270,184.911835 320.865021,180.237076 
	C321.406433,172.170349 312.742035,166.575073 305.204346,169.536255 
	C303.106171,170.360535 301.266815,171.843613 299.283875,173.039429 
	C295.367981,170.693985 290.086304,169.595596 291.108978,163.091049 
	C291.255615,162.158401 290.336121,160.914322 289.644928,160.019028 
	C286.881134,156.439011 281.665771,155.714920 278.016907,158.300446 
	C273.965698,161.171097 273.214325,166.123505 276.147125,170.624985 
	C277.733765,173.060272 274.414001,183.358994 271.665405,184.040375 
	C270.782715,184.259186 269.372498,183.787430 268.689697,183.128189 
	C265.608002,180.152954 262.700653,176.997131 259.854401,174.035339 
	C264.248810,166.004883 263.617401,159.741028 258.265137,155.076889 
	C253.556824,150.973938 246.250732,150.766830 241.204636,154.593338 
	C235.432373,158.970490 234.839020,165.052643 239.276352,175.206543 
	C236.061310,179.101929 232.798172,183.055573 229.615601,186.911636 
	C228.208740,186.551620 227.041534,185.887161 226.005310,186.050995 
	C221.495071,186.764114 221.133499,183.240631 220.011078,180.469635 
	C218.889801,177.701477 216.975250,175.346344 220.264603,172.177185 
	C223.558121,169.004028 223.335159,164.530563 220.721359,160.690659 
	C218.215729,157.009628 214.481583,155.723129 210.203125,156.826874 
	C205.695084,157.989853 203.197159,161.085876 202.837479,165.772720 
	C202.738403,167.063705 202.822403,168.368759 202.822403,169.726151 
	C199.509750,171.469162 196.233780,173.086945 193.067261,174.896271 
	C190.955048,176.103180 189.405945,176.597076 186.988480,174.842056 
	C183.036972,171.973343 177.715820,173.499374 175.254730,177.493866 
	C172.762802,181.538406 173.775146,186.847733 178.079239,189.205551 
	C180.498032,190.530609 180.958008,191.952118 181.280548,194.493576 
	C181.965607,199.891663 180.069885,203.214767 174.748474,204.872482 
	C174.107361,204.415909 173.302780,203.840103 172.495331,203.268356 
	C168.728012,200.600800 164.315643,198.864502 164.232117,192.771820 
	C164.183807,189.247070 159.449615,187.342972 156.014252,188.429321 
	C152.541031,189.527664 150.411743,193.308945 151.342087,196.726334 
	C152.349518,200.426849 156.338867,202.997040 159.867401,201.432587 
	C162.518585,200.257126 164.120651,200.912994 166.056274,202.401413 
	C168.406296,204.208466 170.879578,205.855240 173.258728,207.542450 
	C172.761917,209.785141 172.335144,211.711639 171.816483,214.052917 
	C167.144638,214.855072 162.310806,215.685028 157.648026,216.485626 
	C153.173340,208.202103 147.717682,204.953156 140.774551,206.117783 
	C135.212692,207.050720 129.937408,211.931442 128.999466,217.012146 
	C127.460159,225.350357 130.001556,229.856857 140.611176,236.057892 
	C138.797607,237.573059 137.526932,239.152451 135.878555,239.910492 
	C131.671448,241.845245 129.190109,244.870041 129.189331,249.504959 
	C129.188568,254.176102 131.762268,257.153107 135.989304,259.011261 
	C137.441696,259.649719 139.614517,261.014648 139.608414,262.036621 
	C139.599808,263.475128 138.100235,265.166840 136.829330,266.285919 
	C133.201385,269.480469 131.839859,273.385406 133.059723,277.939056 
	C134.305511,282.589478 137.745743,285.248199 142.426468,285.732727 
	C146.943268,286.200256 150.599808,284.187927 152.786514,280.170258 
	C155.534348,275.121643 154.050781,270.567047 150.411041,266.419403 
	C153.507690,261.347717 156.420578,256.307709 159.657211,251.484970 
	C160.373749,250.417313 162.172791,249.786545 163.579559,249.524445 
	C168.385101,248.629089 170.640747,245.195175 169.624084,240.499832 
	C169.294937,238.979691 169.405685,236.930969 170.196472,235.681992 
	C172.677155,231.764008 175.577530,228.111771 178.024429,224.755646 
	C181.847137,225.035339 185.232971,225.283066 190.016541,225.633057 
	C190.016541,228.117813 190.106201,230.844910 189.994904,233.563782 
	C189.839325,237.364578 175.627533,255.053345 171.991714,256.104401 
	C167.476608,257.409668 166.543427,259.742157 168.921982,263.777100 
	C171.334473,267.869598 169.925934,273.218262 165.853760,275.661072 
	C162.379654,277.745117 160.591064,280.843445 161.405762,284.869385 
	C162.194778,288.768433 164.643051,291.421722 168.751511,292.015167 
	C173.049011,292.635864 176.172745,290.821411 178.127167,286.978424 
	C180.782715,281.756805 185.698502,281.380066 188.995544,286.119354 
	C191.936996,290.347534 196.036499,292.182587 201.101746,291.346436 
	C206.187881,290.506836 209.997986,287.399323 210.658066,282.426453 
	C211.162689,278.624725 209.724075,274.565002 209.149826,270.620056 
	C208.504440,270.306335 207.859055,269.992584 207.213669,269.678864 
	C211.550995,266.226990 215.558655,262.156036 220.369858,259.594147 
	C222.648483,258.380798 227.820007,258.896179 229.312988,260.647247 
	C232.932419,264.892334 235.246307,270.135498 230.459656,275.744171 
	C228.471558,278.073669 227.365723,281.237000 226.185440,284.153412 
	C224.867523,287.409882 223.313248,289.398346 219.215363,289.649841 
	C214.664993,289.929108 211.828217,294.016418 212.006454,298.380035 
	C212.183197,302.706238 214.536072,305.575958 218.574982,306.818115 
	C222.710007,308.089813 226.986038,305.980072 228.982849,301.960175 
	C229.559158,300.799927 229.933136,299.539124 230.394394,298.338684 
	C233.654114,297.923492 236.754303,297.528625 239.749481,297.147125 
	C244.345322,305.955444 250.614151,309.115417 257.895935,306.483063 
	C265.271027,303.816925 267.912018,297.399689 265.848328,287.160217 
	C271.483521,280.739044 278.988190,283.033020 284.877991,289.950806 
	C284.877991,295.456055 284.877991,300.075348 284.877991,306.060272 
	C283.629059,305.998718 281.567963,306.337646 279.839508,305.730133 
	C274.453033,303.836792 269.085541,305.849274 266.940247,310.923004 
	C264.815704,315.947693 267.226257,321.510742 272.445557,323.628082 
	C277.293274,325.594727 278.043701,327.795837 275.383514,332.245483 
	C273.081146,336.096619 275.183838,340.801697 279.440125,340.489319 
	C284.839600,340.093079 287.207153,342.865692 289.327698,347.197693 
	C290.006775,348.584961 292.916809,348.880157 294.806091,349.675018 
	C295.116547,347.800323 296.183563,345.633606 295.594055,344.106232 
	C293.897614,339.710541 292.478729,335.768372 296.424377,331.692261 
	C297.442688,330.640289 298.102051,327.605103 297.402435,326.791779 
	C292.918365,321.578979 296.623444,316.483978 296.678589,311.224548 
	C304.068604,310.532745 309.151764,307.104431 310.617889,300.068634 
	C312.159546,292.670471 308.221985,287.736603 301.730499,284.395752 
	C303.164795,277.583466 304.449768,270.901611 306.045715,264.294891 
	C306.460052,262.579590 307.619110,260.891876 308.836670,259.556854 
	C310.928162,257.263733 311.802155,254.992615 309.384033,252.602036 
	C307.014618,250.259583 304.674072,250.867874 302.441132,253.131271 
	C301.372131,254.214859 300.091125,255.401489 298.696686,255.790451 
	C295.183014,256.770538 291.568970,257.448242 287.956421,257.987854 
	C286.504242,258.204742 284.950775,257.743408 283.443390,257.590759 
	C283.720917,256.071259 283.529785,254.200958 284.358368,253.093933 
	C287.662750,248.679138 290.833130,243.979889 294.948517,240.421463 
	C297.664307,238.073166 301.839142,237.219940 305.510956,236.291885 
	C306.553528,236.028366 308.110931,237.871872 309.454102,238.714233 
	C313.009399,240.943924 317.570740,240.321121 320.382782,237.242188 
	C323.318115,234.028244 323.989868,228.275192 320.511871,226.058731 
	C315.517303,222.875824 317.116486,219.022415 318.021393,215.222122 
	C318.449860,213.422791 320.503204,212.066956 321.560760,210.350266 
	C324.782806,205.119888 330.617889,203.566177 335.499817,206.473419 
	C337.129425,207.443878 339.423920,208.426926 341.069611,208.017609 
	C345.088623,207.017990 346.783112,209.162491 348.439392,212.022690 
	C349.513672,213.877853 350.769257,215.628036 351.943604,217.425278 
	C350.180695,220.330292 348.437897,223.600479 349.140961,226.212219 
	C350.306976,230.543488 347.665344,231.925430 345.166412,233.397720 
	C342.575714,234.924088 341.170135,238.559250 336.814850,237.385376 
	C334.790985,236.839890 331.365631,238.032013 329.972595,239.643799 
	C328.736755,241.073746 329.360596,244.172134 329.302765,246.537445 
	C329.264191,248.115356 329.864899,249.805649 329.474365,251.255722 
	C328.876526,253.475449 327.586517,255.498703 326.743988,257.665100 
	C325.675323,260.413147 324.545685,262.226807 320.820160,262.085693 
	C316.518402,261.922729 313.250427,265.844513 312.828156,270.162537 
	C312.337250,275.182373 314.776093,279.847534 319.582794,280.236877 
	C325.234650,280.694733 325.956482,284.205780 326.963226,288.112579 
	C317.479065,296.773773 319.328430,306.669281 331.809631,310.866974 
z"/>
<path fill="#F7F7F7" opacity="1.000000" stroke="none" 
	d="
M331.409912,310.825348 
	C319.328430,306.669281 317.479065,296.773773 326.963226,288.112579 
	C325.956482,284.205780 325.234650,280.694733 319.582794,280.236877 
	C314.776093,279.847534 312.337250,275.182373 312.828156,270.162537 
	C313.250427,265.844513 316.518402,261.922729 320.820160,262.085693 
	C324.545685,262.226807 325.675323,260.413147 326.743988,257.665100 
	C327.586517,255.498703 328.876526,253.475449 329.474365,251.255722 
	C329.864899,249.805649 329.264191,248.115356 329.302765,246.537445 
	C329.360596,244.172134 328.736755,241.073746 329.972595,239.643799 
	C331.365631,238.032013 334.790985,236.839890 336.814850,237.385376 
	C341.170135,238.559250 342.575714,234.924088 345.166412,233.397720 
	C347.665344,231.925430 350.306976,230.543488 349.140961,226.212219 
	C348.437897,223.600479 350.180695,220.330292 351.943604,217.425278 
	C350.769257,215.628036 349.513672,213.877853 348.439392,212.022690 
	C346.783112,209.162491 345.088623,207.017990 341.069611,208.017609 
	C339.423920,208.426926 337.129425,207.443878 335.499817,206.473419 
	C330.617889,203.566177 324.782806,205.119888 321.560760,210.350266 
	C320.503204,212.066956 318.449860,213.422791 318.021393,215.222122 
	C317.116486,219.022415 315.517303,222.875824 320.511871,226.058731 
	C323.989868,228.275192 323.318115,234.028244 320.382782,237.242188 
	C317.570740,240.321121 313.009399,240.943924 309.454102,238.714233 
	C308.110931,237.871872 306.553528,236.028366 305.510956,236.291885 
	C301.839142,237.219940 297.664307,238.073166 294.948517,240.421463 
	C290.833130,243.979889 287.662750,248.679138 284.358368,253.093933 
	C283.529785,254.200958 283.720917,256.071259 283.443390,257.590759 
	C284.950775,257.743408 286.504242,258.204742 287.956421,257.987854 
	C291.568970,257.448242 295.183014,256.770538 298.696686,255.790451 
	C300.091125,255.401489 301.372131,254.214859 302.441132,253.131271 
	C304.674072,250.867874 307.014618,250.259583 309.384033,252.602036 
	C311.802155,254.992615 310.928162,257.263733 308.836670,259.556854 
	C307.619110,260.891876 306.460052,262.579590 306.045715,264.294891 
	C304.449768,270.901611 303.164795,277.583466 301.730499,284.395752 
	C308.221985,287.736603 312.159546,292.670471 310.617889,300.068634 
	C309.151764,307.104431 304.068604,310.532745 296.678589,311.224548 
	C296.623444,316.483978 292.918365,321.578979 297.402435,326.791779 
	C298.102051,327.605103 297.442688,330.640289 296.424377,331.692261 
	C292.478729,335.768372 293.897614,339.710541 295.594055,344.106232 
	C296.183563,345.633606 295.116547,347.800323 294.806091,349.675018 
	C292.916809,348.880157 290.006775,348.584961 289.327698,347.197693 
	C287.207153,342.865692 284.839600,340.093079 279.440125,340.489319 
	C275.183838,340.801697 273.081146,336.096619 275.383514,332.245483 
	C278.043701,327.795837 277.293274,325.594727 272.445557,323.628082 
	C267.226257,321.510742 264.815704,315.947693 266.940247,310.923004 
	C269.085541,305.849274 274.453033,303.836792 279.839508,305.730133 
	C281.567963,306.337646 283.629059,305.998718 284.877991,306.060272 
	C284.877991,300.075348 284.877991,295.456055 284.877991,289.950806 
	C278.988190,283.033020 271.483521,280.739044 265.848328,287.160217 
	C267.912018,297.399689 265.271027,303.816925 257.895935,306.483063 
	C250.614151,309.115417 244.345322,305.955444 239.749481,297.147125 
	C236.754303,297.528625 233.654114,297.923492 230.394394,298.338684 
	C229.933136,299.539124 229.559158,300.799927 228.982849,301.960175 
	C226.986038,305.980072 222.710007,308.089813 218.574982,306.818115 
	C214.536072,305.575958 212.183197,302.706238 212.006454,298.380035 
	C211.828217,294.016418 214.664993,289.929108 219.215363,289.649841 
	C223.313248,289.398346 224.867523,287.409882 226.185440,284.153412 
	C227.365723,281.237000 228.471558,278.073669 230.459656,275.744171 
	C235.246307,270.135498 232.932419,264.892334 229.312988,260.647247 
	C227.820007,258.896179 222.648483,258.380798 220.369858,259.594147 
	C215.558655,262.156036 211.550995,266.226990 207.213669,269.678864 
	C207.859055,269.992584 208.504440,270.306335 209.149826,270.620056 
	C209.724075,274.565002 211.162689,278.624725 210.658066,282.426453 
	C209.997986,287.399323 206.187881,290.506836 201.101746,291.346436 
	C196.036499,292.182587 191.936996,290.347534 188.995544,286.119354 
	C185.698502,281.380066 180.782715,281.756805 178.127167,286.978424 
	C176.172745,290.821411 173.049011,292.635864 168.751511,292.015167 
	C164.643051,291.421722 162.194778,288.768433 161.405762,284.869385 
	C160.591064,280.843445 162.379654,277.745117 165.853760,275.661072 
	C169.925934,273.218262 171.334473,267.869598 168.921982,263.777100 
	C166.543427,259.742157 167.476608,257.409668 171.991714,256.104401 
	C175.627533,255.053345 189.839325,237.364578 189.994904,233.563782 
	C190.106201,230.844910 190.016541,228.117813 190.016541,225.633057 
	C185.232971,225.283066 181.847137,225.035339 178.024429,224.755646 
	C175.577530,228.111771 172.677155,231.764008 170.196472,235.681992 
	C169.405685,236.930969 169.294937,238.979691 169.624084,240.499832 
	C170.640747,245.195175 168.385101,248.629089 163.579559,249.524445 
	C162.172791,249.786545 160.373749,250.417313 159.657211,251.484970 
	C156.420578,256.307709 153.507690,261.347717 150.411041,266.419403 
	C154.050781,270.567047 155.534348,275.121643 152.786514,280.170258 
	C150.599808,284.187927 146.943268,286.200256 142.426468,285.732727 
	C137.745743,285.248199 134.305511,282.589478 133.059723,277.939056 
	C131.839859,273.385406 133.201385,269.480469 136.829330,266.285919 
	C138.100235,265.166840 139.599808,263.475128 139.608414,262.036621 
	C139.614517,261.014648 137.441696,259.649719 135.989304,259.011261 
	C131.762268,257.153107 129.188568,254.176102 129.189331,249.504959 
	C129.190109,244.870041 131.671448,241.845245 135.878555,239.910492 
	C137.526932,239.152451 138.797607,237.573059 140.611176,236.057892 
	C130.001556,229.856857 127.460159,225.350357 128.999466,217.012146 
	C129.937408,211.931442 135.212692,207.050720 140.774551,206.117783 
	C147.717682,204.953156 153.173340,208.202103 157.648026,216.485626 
	C162.310806,215.685028 167.144638,214.855072 171.816483,214.052917 
	C172.335144,211.711639 172.761917,209.785141 173.258728,207.542450 
	C170.879578,205.855240 168.406296,204.208466 166.056274,202.401413 
	C164.120651,200.912994 162.518585,200.257126 159.867401,201.432587 
	C156.338867,202.997040 152.349518,200.426849 151.342087,196.726334 
	C150.411743,193.308945 152.541031,189.527664 156.014252,188.429321 
	C159.449615,187.342972 164.183807,189.247070 164.232117,192.771820 
	C164.315643,198.864502 168.728012,200.600800 172.495331,203.268356 
	C173.302780,203.840103 174.107361,204.415909 174.748474,204.872482 
	C180.069885,203.214767 181.965607,199.891663 181.280548,194.493576 
	C180.958008,191.952118 180.498032,190.530609 178.079239,189.205551 
	C173.775146,186.847733 172.762802,181.538406 175.254730,177.493866 
	C177.715820,173.499374 183.036972,171.973343 186.988480,174.842056 
	C189.405945,176.597076 190.955048,176.103180 193.067261,174.896271 
	C196.233780,173.086945 199.509750,171.469162 202.822403,169.726151 
	C202.822403,168.368759 202.738403,167.063705 202.837479,165.772720 
	C203.197159,161.085876 205.695084,157.989853 210.203125,156.826874 
	C214.481583,155.723129 218.215729,157.009628 220.721359,160.690659 
	C223.335159,164.530563 223.558121,169.004028 220.264603,172.177185 
	C216.975250,175.346344 218.889801,177.701477 220.011078,180.469635 
	C221.133499,183.240631 221.495071,186.764114 226.005310,186.050995 
	C227.041534,185.887161 228.208740,186.551620 229.615601,186.911636 
	C232.798172,183.055573 236.061310,179.101929 239.276352,175.206543 
	C234.839020,165.052643 235.432373,158.970490 241.204636,154.593338 
	C246.250732,150.766830 253.556824,150.973938 258.265137,155.076889 
	C263.617401,159.741028 264.248810,166.004883 259.854401,174.035339 
	C262.700653,176.997131 265.608002,180.152954 268.689697,183.128189 
	C269.372498,183.787430 270.782715,184.259186 271.665405,184.040375 
	C274.414001,183.358994 277.733765,173.060272 276.147125,170.624985 
	C273.214325,166.123505 273.965698,161.171097 278.016907,158.300446 
	C281.665771,155.714920 286.881134,156.439011 289.644928,160.019028 
	C290.336121,160.914322 291.255615,162.158401 291.108978,163.091049 
	C290.086304,169.595596 295.367981,170.693985 299.283875,173.039429 
	C301.266815,171.843613 303.106171,170.360535 305.204346,169.536255 
	C312.742035,166.575073 321.406433,172.170349 320.865021,180.237076 
	C320.551270,184.911835 322.456543,186.683411 326.000336,188.280014 
	C328.262115,189.299026 330.353180,190.696991 332.494019,191.909897 
	C339.720490,187.765533 344.134735,187.591888 347.867737,191.277206 
	C351.714783,195.075104 351.773499,199.280380 347.975861,205.907425 
	C348.845459,207.211426 349.844696,208.539658 350.663300,209.971191 
	C352.633759,213.416901 354.771851,215.699905 359.528320,214.943176 
	C363.661804,214.285568 366.801392,217.084457 368.362671,220.958481 
	C369.996185,225.011673 369.308105,228.894485 366.134735,231.985001 
	C363.175110,234.867355 359.579041,235.870087 355.570343,234.348175 
	C354.195251,233.826126 352.918579,233.044754 351.556671,232.361649 
	C348.860718,234.379105 346.016724,236.177231 343.613892,238.443176 
	C342.392151,239.595337 342.110565,241.684067 341.142456,243.180176 
	C339.796448,245.260223 338.451782,248.589279 336.671265,248.901505 
	C331.701599,249.772995 331.924072,254.039368 330.297546,256.946289 
	C328.623993,259.937225 326.956238,262.879272 330.208588,266.716156 
	C331.764587,268.551758 331.746460,273.948761 330.172119,275.755676 
	C326.697937,279.743225 328.024445,282.789154 330.035980,286.538025 
	C332.755798,286.850159 335.630402,287.180023 338.932709,287.559021 
	C342.156219,282.820038 345.608978,277.744049 349.027863,272.717834 
	C342.615540,263.337494 342.420746,256.522186 348.305878,250.621002 
	C353.212646,245.700836 361.347778,244.957809 367.114075,248.903122 
	C372.989594,252.923187 375.122864,261.138947 371.967957,267.596405 
	C368.508179,274.677704 361.514679,277.085602 351.524750,274.414032 
	C348.134430,279.357361 344.672028,284.405762 341.133759,289.564819 
	C344.997070,293.976410 346.549316,298.888977 343.730377,304.275269 
	C341.277283,308.962524 337.180847,311.196350 331.409912,310.825348 
M299.668152,187.699356 
	C298.686371,183.849335 297.704620,179.999313 296.722839,176.149292 
	C294.977325,174.109787 291.541168,171.020844 289.243286,171.712631 
	C283.856689,173.334305 277.290314,174.860336 276.642395,182.476685 
	C276.403687,185.282776 275.472198,188.498444 276.477295,190.828094 
	C277.859680,194.032135 280.556519,196.813034 283.175140,199.255280 
	C284.001312,200.025803 286.408234,199.263229 288.049530,198.967941 
	C293.170837,198.046555 298.101257,199.919495 300.768951,203.927444 
	C303.478058,207.997589 303.355225,213.535538 300.467590,217.517120 
	C297.595093,221.477829 292.492523,223.634644 287.665588,221.803741 
	C284.312866,220.532059 282.824249,221.670319 281.130646,224.022476 
	C280.065094,225.502319 278.769684,226.825943 277.506531,228.152176 
	C275.071472,230.708801 273.363586,232.988434 274.896362,237.165619 
	C276.458862,241.423721 272.958649,246.079803 268.729767,247.020767 
	C264.046173,248.062912 258.612640,245.404419 258.349030,240.894089 
	C258.100006,236.633438 255.831009,235.501999 252.690704,234.819199 
	C250.296921,234.298706 247.787521,234.318817 245.333115,234.064255 
	C244.196396,233.946335 243.032974,233.870789 241.942749,233.560989 
	C238.860428,232.685120 235.809662,231.698120 232.798401,230.770905 
	C229.560440,240.865799 224.069427,244.990341 216.548431,243.947098 
	C210.196304,243.065964 205.147598,237.336044 204.996185,230.836121 
	C204.818909,223.226135 209.477646,218.496933 219.453415,216.370056 
	C219.771500,214.528610 219.983704,212.551651 220.470810,210.644913 
	C221.334610,207.263748 221.425797,204.673080 217.867996,202.220520 
	C214.058838,199.594681 213.502075,193.543640 216.768845,190.186813 
	C219.544678,187.334473 218.946991,185.148499 217.586365,182.322479 
	C216.654327,180.386642 215.926132,178.352676 215.483170,177.276749 
	C211.862030,175.893890 208.999359,174.828720 206.162918,173.697784 
	C205.452652,173.414612 204.585938,172.415619 204.199081,172.600281 
	C200.155396,174.530472 196.046646,176.407181 192.308502,178.840378 
	C191.288269,179.504471 191.790161,182.177567 190.993500,183.590347 
	C189.742615,185.808701 187.937836,187.708344 186.454819,189.804657 
	C185.606247,191.004135 184.490250,192.255646 184.275131,193.607864 
	C183.914200,195.876572 184.176392,198.244431 184.176392,200.495773 
	C197.556122,205.601974 199.825012,213.156921 190.749878,224.453766 
	C192.653763,226.004761 194.708145,227.415024 196.414719,229.164551 
	C197.488007,230.264832 198.831787,232.011353 198.621933,233.219070 
	C198.368820,234.675552 196.751511,236.053329 195.448212,237.130692 
	C193.637589,238.627426 191.200684,239.483368 189.676514,241.189499 
	C183.189072,248.451462 176.794998,255.889893 173.377777,265.175934 
	C172.337280,268.003418 171.684494,271.755829 172.690002,274.381592 
	C174.464554,279.015503 180.863632,280.747284 186.659607,279.255219 
	C188.709229,268.979980 194.203461,265.830750 205.604065,268.631897 
	C207.814697,264.495697 212.521820,261.854767 212.176315,255.918045 
	C212.009262,253.047379 216.046860,252.280533 218.909531,253.815933 
	C221.042435,254.959946 223.565857,255.394485 225.935715,256.073944 
	C229.892426,257.208374 229.834000,253.531250 231.257568,251.605026 
	C231.846085,250.808716 232.531067,250.052658 233.289062,249.417877 
	C237.062698,246.257782 242.698914,245.947327 246.776215,248.619522 
	C250.749146,251.223343 252.817596,256.406097 251.640182,260.806793 
	C250.307953,265.786133 245.887741,269.358856 240.656281,269.376923 
	C238.533356,269.384277 236.668243,268.591064 235.406113,271.481018 
	C232.564285,277.988007 229.248413,284.287994 226.150070,290.621918 
	C227.065109,291.819611 227.801880,292.938721 228.692215,293.918274 
	C230.776215,296.211090 238.866318,294.892975 239.771698,292.154175 
	C244.044662,279.228607 252.926224,276.388062 264.433441,285.255219 
	C266.206390,282.645935 267.804108,279.977722 269.739258,277.582062 
	C270.688110,276.407440 272.219971,275.110199 273.567261,275.017151 
	C274.926056,274.923370 277.518219,276.123199 277.615417,276.978333 
	C278.320709,283.185699 283.999603,284.433258 286.880310,287.292389 
	C291.107391,285.794586 294.782349,284.492401 298.921326,283.025818 
	C300.216644,276.787231 301.677795,269.982513 303.030792,263.156372 
	C304.024353,258.143677 303.573151,257.779846 298.364014,258.857758 
	C296.410980,259.261902 294.449280,259.623779 292.493774,260.015991 
	C288.698914,260.777191 284.965424,260.981628 283.090027,265.750641 
	C282.479919,267.302063 277.585419,268.549316 275.490814,267.745605 
	C273.422058,266.951813 271.262268,263.375549 271.290131,261.045624 
	C271.314575,259.000549 274.354095,255.261536 275.991760,255.299484 
	C280.397339,255.401520 281.408997,252.481522 282.626099,249.774780 
	C283.818726,247.122498 284.744781,244.177826 284.954712,241.300690 
	C285.206024,237.855789 286.734070,234.944702 289.845795,236.126144 
	C295.060822,238.106201 298.731384,234.912735 303.015411,233.807388 
	C303.873077,233.586075 305.029663,232.438995 305.109955,231.626068 
	C305.644379,226.214615 309.007477,223.502975 313.878754,222.267685 
	C313.782104,217.872910 316.570007,213.673965 312.885620,209.696976 
	C312.233215,208.992752 313.328125,206.877945 313.176117,205.461777 
	C312.768890,201.669128 312.479980,197.790741 311.357666,194.191620 
	C311.013092,193.086563 308.056091,192.911880 306.423615,192.064178 
	C304.254730,190.937912 302.211517,189.569702 299.668152,187.699356 
M258.848145,218.656952 
	C250.476532,219.200623 246.996841,215.774292 246.435608,206.279434 
	C242.691010,204.704086 238.908173,203.022522 235.044388,201.553909 
	C234.138824,201.209702 232.784515,201.251419 231.938660,201.693451 
	C229.382050,203.029510 226.973877,204.649612 224.163986,206.369461 
	C223.630539,209.619354 223.016632,213.359436 222.683441,215.389267 
	C226.851639,220.385880 230.120651,224.304611 234.207993,229.204300 
	C236.155090,228.385742 239.089691,226.793930 242.226166,225.981522 
	C243.843353,225.562653 247.068573,226.044739 247.421509,226.953278 
	C249.123001,231.333237 253.299774,232.862762 256.532135,232.776886 
	C261.996460,232.631729 267.919861,231.469025 272.680786,228.922043 
	C276.497711,226.880081 278.877228,222.151154 281.899872,218.608566 
	C278.638092,213.964066 277.959229,209.381699 280.596924,204.388016 
	C281.081757,203.470139 280.837189,201.545624 280.156921,200.729721 
	C273.248169,192.443253 272.761353,189.482925 264.762451,200.757751 
	C264.570557,201.028244 264.405792,201.317963 264.231659,201.600784 
	C268.316193,210.075943 267.018341,214.749817 258.848145,218.656952 
M244.451340,202.161285 
	C245.946030,202.257812 248.137360,203.035599 248.819778,202.337784 
	C252.603592,198.468582 256.909058,198.269699 261.514618,199.799988 
	C271.838928,188.780609 268.637543,186.697235 258.098022,176.961319 
	C254.062881,177.535049 250.288422,179.211517 247.432159,178.226212 
	C242.420334,176.497284 239.855591,178.215256 237.401688,182.017792 
	C236.237015,183.822571 234.582550,185.306320 233.354324,187.077240 
	C232.793671,187.885620 232.332367,189.115555 232.511612,190.018158 
	C233.044250,192.700455 233.917221,195.315155 234.704697,198.125961 
	C237.588974,199.353714 240.641129,200.652924 244.451340,202.161285 
M171.420303,228.858963 
	C172.859955,226.827866 174.299606,224.796768 175.835754,222.629562 
	C174.642639,220.739075 173.462265,218.868744 172.311661,217.045593 
	C167.469162,217.912567 162.917404,218.727493 158.459549,219.525604 
	C156.435165,229.432693 153.019897,233.480179 145.855652,235.136383 
	C144.540482,235.440430 142.743958,236.543320 142.472763,237.609070 
	C142.238068,238.531372 143.616333,240.232483 144.690079,241.058197 
	C150.586411,245.592590 150.679092,252.850510 145.067459,257.688843 
	C143.602631,258.951813 143.021332,261.239471 141.763672,263.554596 
	C144.721878,264.202179 146.274124,264.541992 147.828537,264.882263 
	C150.931290,259.882080 154.050354,255.169739 156.779343,250.241394 
	C157.478622,248.978531 157.305099,246.940231 156.910721,245.419449 
	C155.789337,241.095078 157.504242,236.327332 161.357742,236.438736 
	C166.932190,236.599915 168.452026,232.666763 171.420303,228.858963 
M292.018890,322.156006 
	C292.653870,318.264374 293.288879,314.372772 293.900055,310.627045 
	C291.600525,309.342346 289.619171,308.235443 286.411255,306.443268 
	C285.968811,309.005920 285.235291,310.968811 285.385010,312.861847 
	C285.698761,316.828461 284.657898,319.993805 281.453094,322.448578 
	C278.691254,324.564056 278.762482,328.123077 281.393372,330.386566 
	C282.604797,331.428864 284.600433,332.794678 284.521484,333.889984 
	C284.161163,338.891357 288.312805,340.097900 291.220642,342.596558 
	C291.095123,339.183441 291.343994,335.329590 289.613434,332.866486 
	C286.224731,328.043365 286.228821,325.903564 292.018890,322.156006 
M322.193085,204.670303 
	C323.713196,204.028351 325.260864,203.443832 326.746735,202.730621 
	C328.825470,201.732849 331.113495,201.522125 331.253479,197.927689 
	C331.384644,194.558823 329.689850,193.678848 327.523621,192.513428 
	C324.644196,190.964340 321.779053,189.388687 318.980927,187.864288 
	C317.127594,189.409012 315.534637,190.736710 313.785370,192.194702 
	C316.556091,196.507507 314.416046,203.367493 322.193085,204.670303 
z"/>
<path fill="#040404" opacity="1.000000" stroke="none" 
	d="
M299.891235,188.002396 
	C302.211517,189.569702 304.254730,190.937912 306.423615,192.064178 
	C308.056091,192.911880 311.013092,193.086563 311.357666,194.191620 
	C312.479980,197.790741 312.768890,201.669128 313.176117,205.461777 
	C313.328125,206.877945 312.233215,208.992752 312.885620,209.696976 
	C316.570007,213.673965 313.782104,217.872910 313.878754,222.267685 
	C309.007477,223.502975 305.644379,226.214615 305.109955,231.626068 
	C305.029663,232.438995 303.873077,233.586075 303.015411,233.807388 
	C298.731384,234.912735 295.060822,238.106201 289.845795,236.126144 
	C286.734070,234.944702 285.206024,237.855789 284.954712,241.300690 
	C284.744781,244.177826 283.818726,247.122498 282.626099,249.774780 
	C281.408997,252.481522 280.397339,255.401520 275.991760,255.299484 
	C274.354095,255.261536 271.314575,259.000549 271.290131,261.045624 
	C271.262268,263.375549 273.422058,266.951813 275.490814,267.745605 
	C277.585419,268.549316 282.479919,267.302063 283.090027,265.750641 
	C284.965424,260.981628 288.698914,260.777191 292.493774,260.015991 
	C294.449280,259.623779 296.410980,259.261902 298.364014,258.857758 
	C303.573151,257.779846 304.024353,258.143677 303.030792,263.156372 
	C301.677795,269.982513 300.216644,276.787231 298.921326,283.025818 
	C294.782349,284.492401 291.107391,285.794586 286.880310,287.292389 
	C283.999603,284.433258 278.320709,283.185699 277.615417,276.978333 
	C277.518219,276.123199 274.926056,274.923370 273.567261,275.017151 
	C272.219971,275.110199 270.688110,276.407440 269.739258,277.582062 
	C267.804108,279.977722 266.206390,282.645935 264.433441,285.255219 
	C252.926224,276.388062 244.044662,279.228607 239.771698,292.154175 
	C238.866318,294.892975 230.776215,296.211090 228.692215,293.918274 
	C227.801880,292.938721 227.065109,291.819611 226.150070,290.621918 
	C229.248413,284.287994 232.564285,277.988007 235.406113,271.481018 
	C236.668243,268.591064 238.533356,269.384277 240.656281,269.376923 
	C245.887741,269.358856 250.307953,265.786133 251.640182,260.806793 
	C252.817596,256.406097 250.749146,251.223343 246.776215,248.619522 
	C242.698914,245.947327 237.062698,246.257782 233.289062,249.417877 
	C232.531067,250.052658 231.846085,250.808716 231.257568,251.605026 
	C229.834000,253.531250 229.892426,257.208374 225.935715,256.073944 
	C223.565857,255.394485 221.042435,254.959946 218.909531,253.815933 
	C216.046860,252.280533 212.009262,253.047379 212.176315,255.918045 
	C212.521820,261.854767 207.814697,264.495697 205.604065,268.631897 
	C194.203461,265.830750 188.709229,268.979980 186.659607,279.255219 
	C180.863632,280.747284 174.464554,279.015503 172.690002,274.381592 
	C171.684494,271.755829 172.337280,268.003418 173.377777,265.175934 
	C176.794998,255.889893 183.189072,248.451462 189.676514,241.189499 
	C191.200684,239.483368 193.637589,238.627426 195.448212,237.130692 
	C196.751511,236.053329 198.368820,234.675552 198.621933,233.219070 
	C198.831787,232.011353 197.488007,230.264832 196.414719,229.164551 
	C194.708145,227.415024 192.653763,226.004761 190.749878,224.453766 
	C199.825012,213.156921 197.556122,205.601974 184.176392,200.495773 
	C184.176392,198.244431 183.914200,195.876572 184.275131,193.607864 
	C184.490250,192.255646 185.606247,191.004135 186.454819,189.804657 
	C187.937836,187.708344 189.742615,185.808701 190.993500,183.590347 
	C191.790161,182.177567 191.288269,179.504471 192.308502,178.840378 
	C196.046646,176.407181 200.155396,174.530472 204.199081,172.600281 
	C204.585938,172.415619 205.452652,173.414612 206.162918,173.697784 
	C208.999359,174.828720 211.862030,175.893890 215.483170,177.276749 
	C215.926132,178.352676 216.654327,180.386642 217.586365,182.322479 
	C218.946991,185.148499 219.544678,187.334473 216.768845,190.186813 
	C213.502075,193.543640 214.058838,199.594681 217.867996,202.220520 
	C221.425797,204.673080 221.334610,207.263748 220.470810,210.644913 
	C219.983704,212.551651 219.771500,214.528610 219.453415,216.370056 
	C209.477646,218.496933 204.818909,223.226135 204.996185,230.836121 
	C205.147598,237.336044 210.196304,243.065964 216.548431,243.947098 
	C224.069427,244.990341 229.560440,240.865799 232.798401,230.770905 
	C235.809662,231.698120 238.860428,232.685120 241.942749,233.560989 
	C243.032974,233.870789 244.196396,233.946335 245.333115,234.064255 
	C247.787521,234.318817 250.296921,234.298706 252.690704,234.819199 
	C255.831009,235.501999 258.100006,236.633438 258.349030,240.894089 
	C258.612640,245.404419 264.046173,248.062912 268.729767,247.020767 
	C272.958649,246.079803 276.458862,241.423721 274.896362,237.165619 
	C273.363586,232.988434 275.071472,230.708801 277.506531,228.152176 
	C278.769684,226.825943 280.065094,225.502319 281.130646,224.022476 
	C282.824249,221.670319 284.312866,220.532059 287.665588,221.803741 
	C292.492523,223.634644 297.595093,221.477829 300.467590,217.517120 
	C303.355225,213.535538 303.478058,207.997589 300.768951,203.927444 
	C298.101257,199.919495 293.170837,198.046555 288.049530,198.967941 
	C286.408234,199.263229 284.001312,200.025803 283.175140,199.255280 
	C280.556519,196.813034 277.859680,194.032135 276.477295,190.828094 
	C275.472198,188.498444 276.403687,185.282776 276.642395,182.476685 
	C277.290314,174.860336 283.856689,173.334305 289.243286,171.712631 
	C291.541168,171.020844 294.977325,174.109787 296.722839,176.149292 
	C297.704620,179.999313 298.686371,183.849335 299.891235,188.002396 
M191.956772,259.703033 
	C198.065735,261.236908 202.305054,259.562164 203.946304,254.966522 
	C205.380630,250.950287 203.550720,246.258545 199.793884,244.320038 
	C195.935654,242.329208 191.199860,243.544601 188.757278,247.152496 
	C185.926544,251.333679 186.771637,255.262024 191.956772,259.703033 
M198.653992,197.832901 
	C200.766586,197.216492 203.221451,197.034042 204.823517,195.770401 
	C205.465530,195.264008 204.791702,191.468994 203.710907,190.802811 
	C202.312820,189.941055 198.535248,190.129898 198.209930,190.896561 
	C197.425369,192.745499 198.052460,195.193405 198.653992,197.832901 
z"/>
<path fill="#050505" opacity="1.000000" stroke="none" 
	d="
M259.211731,218.513275 
	C267.018341,214.749817 268.316193,210.075943 264.230011,201.599731 
	C264.405792,201.317963 264.570557,201.028244 264.762451,200.757751 
	C272.761353,189.482925 273.248169,192.443253 280.156921,200.729721 
	C280.837189,201.545624 281.081757,203.470139 280.596924,204.388016 
	C277.959229,209.381699 278.638092,213.964066 281.899872,218.608566 
	C278.877228,222.151154 276.497711,226.880081 272.680786,228.922043 
	C267.919861,231.469025 261.996460,232.631729 256.532135,232.776886 
	C253.299774,232.862762 249.123001,231.333237 247.421509,226.953278 
	C247.068573,226.044739 243.843353,225.562653 242.226166,225.981522 
	C239.089691,226.793930 236.155090,228.385742 234.207993,229.204300 
	C230.120651,224.304611 226.851639,220.385880 222.683441,215.389267 
	C223.016632,213.359436 223.630539,209.619354 224.163986,206.369461 
	C226.973877,204.649612 229.382050,203.029510 231.938660,201.693451 
	C232.784515,201.251419 234.138824,201.209702 235.044388,201.553909 
	C238.908173,203.022522 242.691010,204.704086 246.435608,206.279434 
	C246.996841,215.774292 250.476532,219.200623 259.211731,218.513275 
z"/>
<path fill="#040404" opacity="1.000000" stroke="none" 
	d="
M244.072311,202.056717 
	C240.641129,200.652924 237.588974,199.353714 234.704697,198.125961 
	C233.917221,195.315155 233.044250,192.700455 232.511612,190.018158 
	C232.332367,189.115555 232.793671,187.885620 233.354324,187.077240 
	C234.582550,185.306320 236.237015,183.822571 237.401688,182.017792 
	C239.855591,178.215256 242.420334,176.497284 247.432159,178.226212 
	C250.288422,179.211517 254.062881,177.535049 258.098022,176.961319 
	C268.637543,186.697235 271.838928,188.780609 261.514618,199.799988 
	C256.909058,198.269699 252.603592,198.468582 248.819778,202.337784 
	C248.137360,203.035599 245.946030,202.257812 244.072311,202.056717 
z"/>
<path fill="#070707" opacity="1.000000" stroke="none" 
	d="
M171.200806,229.156342 
	C168.452026,232.666763 166.932190,236.599915 161.357742,236.438736 
	C157.504242,236.327332 155.789337,241.095078 156.910721,245.419449 
	C157.305099,246.940231 157.478622,248.978531 156.779343,250.241394 
	C154.050354,255.169739 150.931290,259.882080 147.828537,264.882263 
	C146.274124,264.541992 144.721878,264.202179 141.763672,263.554596 
	C143.021332,261.239471 143.602631,258.951813 145.067459,257.688843 
	C150.679092,252.850510 150.586411,245.592590 144.690079,241.058197 
	C143.616333,240.232483 142.238068,238.531372 142.472763,237.609070 
	C142.743958,236.543320 144.540482,235.440430 145.855652,235.136383 
	C153.019897,233.480179 156.435165,229.432693 158.459549,219.525604 
	C162.917404,218.727493 167.469162,217.912567 172.311661,217.045593 
	C173.462265,218.868744 174.642639,220.739075 175.835754,222.629562 
	C174.299606,224.796768 172.859955,226.827866 171.200806,229.156342 
z"/>
<path fill="#0B0B0B" opacity="1.000000" stroke="none" 
	d="
M291.836243,322.506226 
	C286.228821,325.903564 286.224731,328.043365 289.613434,332.866486 
	C291.343994,335.329590 291.095123,339.183441 291.220642,342.596558 
	C288.312805,340.097900 284.161163,338.891357 284.521484,333.889984 
	C284.600433,332.794678 282.604797,331.428864 281.393372,330.386566 
	C278.762482,328.123077 278.691254,324.564056 281.453094,322.448578 
	C284.657898,319.993805 285.698761,316.828461 285.385010,312.861847 
	C285.235291,310.968811 285.968811,309.005920 286.411255,306.443268 
	C289.619171,308.235443 291.600525,309.342346 293.900055,310.627045 
	C293.288879,314.372772 292.653870,318.264374 291.836243,322.506226 
z"/>
<path fill="#090909" opacity="1.000000" stroke="none" 
	d="
M321.825287,204.787476 
	C314.416046,203.367493 316.556091,196.507507 313.785370,192.194702 
	C315.534637,190.736710 317.127594,189.409012 318.980927,187.864288 
	C321.779053,189.388687 324.644196,190.964340 327.523621,192.513428 
	C329.689850,193.678848 331.384644,194.558823 331.253479,197.927689 
	C331.113495,201.522125 328.825470,201.732849 326.746735,202.730621 
	C325.260864,203.443832 323.713196,204.028351 321.825287,204.787476 
z"/>
<path fill="#F5F5F5" opacity="1.000000" stroke="none" 
	d="
M191.658478,259.477539 
	C186.771637,255.262024 185.926544,251.333679 188.757278,247.152496 
	C191.199860,243.544601 195.935654,242.329208 199.793884,244.320038 
	C203.550720,246.258545 205.380630,250.950287 203.946304,254.966522 
	C202.305054,259.562164 198.065735,261.236908 191.658478,259.477539 
z"/>
<path fill="#F1F1F1" opacity="1.000000" stroke="none" 
	d="
M198.382141,197.616333 
	C198.052460,195.193405 197.425369,192.745499 198.209930,190.896561 
	C198.535248,190.129898 202.312820,189.941055 203.710907,190.802811 
	C204.791702,191.468994 205.465530,195.264008 204.823517,195.770401 
	C203.221451,197.034042 200.766586,197.216492 198.382141,197.616333 
z"/>
</svg>